<?xml version="1.0" encoding="UTF-8" standalone="no"?>
<svg
   version="1.0"
   width="348.000000pt"
   height="348.000000pt"
   viewBox="0 0 348.000000 348.000000"
   preserveAspectRatio="xMidYMid meet"
   id="svg1"
   sodipodi:docname="SoundCloud.svg"
   inkscape:version="1.3.2 (091e20e, 2023-11-25, custom)"
   xmlns:inkscape="http://www.inkscape.org/namespaces/inkscape"
   xmlns:sodipodi="http://sodipodi.sourceforge.net/DTD/sodipodi-0.dtd"
   xmlns="http://www.w3.org/2000/svg"
   xmlns:svg="http://www.w3.org/2000/svg">
  <defs
     id="defs1" />
  <sodipodi:namedview
     id="namedview1"
     pagecolor="#ffffff"
     bordercolor="#000000"
     borderopacity="0.25"
     inkscape:showpageshadow="2"
     inkscape:pageopacity="0.0"
     inkscape:pagecheckerboard="0"
     inkscape:deskcolor="#d1d1d1"
     inkscape:document-units="pt"
     inkscape:zoom="1.0797414"
     inkscape:cx="232"
     inkscape:cy="232"
     inkscape:window-width="1366"
     inkscape:window-height="705"
     inkscape:window-x="-8"
     inkscape:window-y="-8"
     inkscape:window-maximized="1"
     inkscape:current-layer="svg1" />
  <g
     transform="translate(0.000000,348.000000) scale(0.100000,-0.100000)"
     fill="#000000"
     stroke="none"
     id="g1"
     style="fill:#005b11;fill-opacity:1">
    <path
       d="M1580 3469 c-128 -12 -314 -53 -430 -96 -131 -48 -307 -141 -420 -221 -122 -86 -316 -280 -402 -402 -236 -333 -350 -743 -318 -1139 26 -324 133 -620 318 -881 86 -122 280 -316 402 -402 185 -131 416 -234 630 -282 132 -29 353 -49 450 -41 36 3 94 8 130 11 36 3 117 17 180 31 649 142 1169 662 1314 1313 28 127 50 355 42 440 -3 30 -8 89 -11 130 -9 107 -51 289 -92 400 -48 131 -141 307 -221 420 -86 122 -280 316 -402 402 -258 183 -557 291 -873 317 -141 12 -160 12 -297 0z m565 -1214 c198 -50 357 -214 397 -406 11 -56 13 -58 37 -51 53 15 164 7 213 -15 96 -44 167 -147 175 -256 10 -121 -67 -247 -180 -298 -52 -24 -54 -24 -505 -27 -336 -2 -457 0 -468 9 -12 10 -14 93 -14 510 0 484 1 499 19 509 73 39 226 50 326 25z m-375 -74 c12 -23 18 -904 6 -939 -4 -12 -16 -27 -26 -32 -36 -19 -47 9 -54 146 -10 166 3 815 16 832 15 18 46 15 58 -7z m-97 -226 c4 -99 6 -303 4 -453 -3 -231 -6 -275 -19 -288 -12 -12 -20 -13 -36 -5 -17 9 -20 25 -27 151 -9 182 4 751 18 768 6 7 20 12 31 10 20 -3 21 -11 29 -183z m-323 99 c10 -12 13 -105 14 -419 1 -372 0 -406 -16 -422 -17 -16 -19 -16 -35 0 -17 16 -18 50 -18 420 1 221 4 410 8 420 8 21 30 22 47 1z m97 -2 c17 -11 33 -530 21 -696 -10 -144 -23 -176 -55 -143 -17 16 -18 50 -17 417 0 312 3 402 13 414 15 18 21 19 38 8z m-200 -14 c10 -17 8 17 16 -318 11 -417 -4 -554 -53 -504 -13 13 -15 71 -14 413 1 219 4 403 8 410 9 15 33 14 43 -1z m313 -18 c13 -24 19 -752 7 -787 -10 -29 -37 -37 -56 -18 -14 14 -16 63 -15 393 0 207 3 389 7 405 9 33 41 37 57 7z m-409 -61 c13 -93 20 -507 10 -623 -11 -128 -20 -151 -49 -123 -16 16 -17 48 -16 392 1 287 5 379 14 390 20 25 34 12 41 -36z m-98 -121 c15 -175 19 -390 8 -503 -11 -112 -23 -147 -44 -126 -16 16 -29 241 -23 411 9 246 14 290 36 290 14 0 18 -13 23 -72z m-202 -85 c0 -10 6 -74 13 -143 9 -98 9 -153 -1 -254 -12 -121 -23 -160 -40 -142 -18 18 -29 273 -17 411 7 77 12 141 13 143 5 11 31 -2 32 -15z m-101 5 c0 -2 7 -63 15 -135 12 -114 12 -152 0 -264 -8 -72 -16 -134 -20 -137 -29 -29 -52 219 -36 387 6 66 11 126 11 135 0 9 7 16 15 16 8 0 15 -1 15 -2z m211 -129 c16 -166 -1 -419 -28 -419 -19 0 -21 10 -32 150 -12 140 2 380 22 392 21 13 27 -7 38 -123z m-293 -20 c10 -83 11 -127 1 -219 -18 -174 -36 -178 -55 -12 -11 100 -8 187 12 310 10 62 28 28 42 -79z m-107 29 c17 -70 23 -163 13 -221 -13 -73 -20 -89 -33 -68 -27 43 -19 291 9 291 6 0 10 -1 11 -2z"
       id="path1"
       style="fill:#005b11;fill-opacity:1" />
  </g>
</svg>
